<?xml version="1.0" encoding="UTF-8" standalone="no"?>
<!-- Created with Inkscape (http://www.inkscape.org/) -->

<svg
   width="50"
   height="50"
   viewBox="0 0 13.229166 13.229167"
   version="1.1"
   id="svg1"
   xml:space="preserve"
   inkscape:version="1.4.2 (ebf0e940d0, 2025-05-08)"
   sodipodi:docname="icon.svg"
   xmlns:inkscape="http://www.inkscape.org/namespaces/inkscape"
   xmlns:sodipodi="http://sodipodi.sourceforge.net/DTD/sodipodi-0.dtd"
   xmlns="http://www.w3.org/2000/svg"
   xmlns:svg="http://www.w3.org/2000/svg"><sodipodi:namedview
     id="namedview1"
     pagecolor="#505050"
     bordercolor="#eeeeee"
     borderopacity="1"
     inkscape:showpageshadow="0"
     inkscape:pageopacity="0"
     inkscape:pagecheckerboard="0"
     inkscape:deskcolor="#505050"
     inkscape:document-units="px"
     inkscape:zoom="6.3570215"
     inkscape:cx="9.3597293"
     inkscape:cy="27.685922"
     inkscape:window-width="1920"
     inkscape:window-height="997"
     inkscape:window-x="0"
     inkscape:window-y="0"
     inkscape:window-maximized="1"
     inkscape:current-layer="layer1" /><defs
     id="defs1" /><g
     inkscape:label="Capa 1"
     inkscape:groupmode="layer"
     id="layer1"><path
       style="fill:#ffffff;fill-opacity:1;stroke-width:1.59941"
       d="M 6.1659382,10.306311 C 5.879454,10.117459 5.7700407,9.8967803 5.7669997,9.5016804 5.7650366,9.2466107 5.8055859,9.1252727 5.9419686,8.9781134 6.5419807,8.3306897 7.5726689,8.697955 7.5647592,9.5563629 7.5599526,10.078011 7.1883056,10.445721 6.6658793,10.445721 c -0.1641272,0 -0.3796123,-0.06009 -0.4999411,-0.13941 z M 2.504025,8.5958395 0.17832231,7.4504674 V 6.8278409 6.2052143 L 2.5305339,5.0555222 C 3.8242505,4.4231915 4.8961247,3.9058299 4.9124774,3.9058299 c 0.016352,0 0.020649,0.4073546 0.00955,0.9052327 L 4.9018428,5.716295 3.7119486,6.2601558 C 3.0575067,6.5592792 2.5140687,6.8116475 2.5043093,6.8209739 c -0.00976,0.00932 0.5338057,0.2705291 1.207923,0.5804499 l 1.2256676,0.5634921 v 0.8911069 c 0,0.4901089 -0.024338,0.8897754 -0.054086,0.8881481 C 4.8540665,9.7425434 3.7831618,9.2257942 2.504025,8.5958395 Z M 8.3222886,8.7768813 8.3424493,7.8695825 9.5218603,7.3226501 10.701272,6.7757177 10.351182,6.6102678 C 10.15863,6.5192691 9.6197829,6.2682948 9.1537416,6.0525452 L 8.3063919,5.6602724 V 4.7595584 3.8588446 L 9.8388321,4.6006629 C 10.681674,5.0086628 11.736352,5.5259292 12.182563,5.7501455 L 12.993855,6.15781 V 6.769926 7.3820418 L 11.035521,8.3617265 C 9.9584391,8.9005525 8.9028,9.4185342 8.6896586,9.5127954 L 8.302128,9.68418 Z M 5.7980539,7.9783358 C 5.7783947,7.9271049 5.7709029,6.8795032 5.7814058,5.6503326 L 5.8005013,3.4154768 H 6.6658789 7.5312568 V 5.7231512 8.030825 L 6.6825272,8.0511536 C 6.0404771,8.0665395 5.8250933,8.0488043 5.7980539,7.9783358 Z"
       id="path1"
       sodipodi:nodetypes="ssssssscccssccssscsssccccsscccsscccssccssccccccs" /></g></svg>
